<svg id="Layer_1" data-name="Layer 1" xmlns="http://www.w3.org/2000/svg" viewBox="0 0 1080 1080"><defs><style>.cls-1{fill:#fff;}.cls-2{fill:#484d6d;}.cls-3{fill:#767a92;}</style></defs><circle class="cls-1" cx="540" cy="540" r="540"/><path class="cls-2" d="M131.67,581.67A41.67,41.67,0,0,1,90,540C90,291.87,291.87,90,540,90a41.67,41.67,0,1,1,0,83.33c-202.18,0-366.67,164.49-366.67,366.67A41.67,41.67,0,0,1,131.67,581.67Zm446.6,181.47V721.77C656.8,711.58,692.18,669,692.18,607.86V596.47c0-63-28.78-88.13-94.13-101.32l-83.93-16.79c-21.59-4.19-32.38-10.19-32.38-31.77v-8.4C481.74,410,497.93,398,539.9,398c43.76,0,57,12.59,57,39.57V446c0,9,4.8,13.79,14.39,13.79H673c8.4,0,13.79-5.4,13.79-15v-9c0-55.16-30.58-91.73-108.51-100.72V300.3c0-22.78-14.39-38.36-37.17-38.36h-3c-22.78,0-37.17,15.58-37.17,38.36v35.38C423.59,345.87,389.42,388.44,389.42,449v10.79c0,63.55,28.17,89.33,93.52,101.92l83.34,16.18c22.18,4.2,33,10.8,33,32.38v9c0,27.58-18,40.17-60.55,40.17-45.57,0-60-13.19-60-40.17V609.06c0-8.39-4.8-13.19-13.19-13.19H403.21c-9,0-14.39,5.4-14.39,14.39v10.79c0,55.76,31.77,92.93,112.11,101.32v40.77c0,22.78,14.39,38.37,37.17,38.37h3C563.88,801.51,578.27,785.92,578.27,763.14Z"/><path class="cls-3" d="M540.48,990a41.67,41.67,0,0,0-.24-83.34h-.35l-3.48,0H536a41.67,41.67,0,0,0-.44,83.33l4.48,0Zm-.24-40.31v0ZM761.11,932q2.05-1.17,4.1-2.35a41.67,41.67,0,1,0-41.78-72.1l-3.31,1.89a41.67,41.67,0,1,0,41,72.56ZM372.16,914.68a41.67,41.67,0,0,0-15.25-56.92l-3.33-1.94a41.67,41.67,0,1,0-42.4,71.74c1.35.79,2.71,1.59,4.07,2.37a41.64,41.64,0,0,0,56.91-15.25ZM927.42,769.05q1.2-2,2.39-4.09a41.67,41.67,0,1,0-72.17-41.66c-.64,1.1-1.28,2.2-1.93,3.3a41.67,41.67,0,1,0,71.71,42.45Zm-720,11.53a41.67,41.67,0,0,0,15.16-56.94l-1.92-3.35a41.67,41.67,0,0,0-72.51,41.08q1.16,2,2.32,4a41.66,41.66,0,0,0,57,15.16ZM990,544.69c0-1.56,0-3.13,0-5V539a41.67,41.67,0,1,0-83.34,0v1l0,3.86a41.66,41.66,0,0,0,41.24,42.08h.43A41.67,41.67,0,0,0,990,544.69ZM916,375a41.68,41.68,0,0,0,15.63-56.82q-1.15-2-2.32-4a41.67,41.67,0,0,0-72,41.87l1.92,3.35A41.65,41.65,0,0,0,916,375ZM783.09,209.24a41.67,41.67,0,0,0-14.71-57.06l-4.09-2.38A41.67,41.67,0,0,0,722.71,222L726,224a41.64,41.64,0,0,0,57.06-14.71Z"/></svg>