<svg xmlns="http://www.w3.org/2000/svg" viewBox="0 0 1080 1080"><defs><style>.cls-1,.cls-2,.cls-3,.cls-4,.cls-5,.cls-6,.cls-7,.cls-8{fill:#fff;}.cls-2{opacity:0.5;}.cls-3{opacity:0.38;}.cls-4{opacity:0.25;}.cls-5{opacity:0.13;}.cls-6{opacity:0.88;}.cls-7{opacity:0.75;}.cls-8{opacity:0.63;}</style></defs><g id="Layer_2" data-name="Layer 2"><path class="cls-1" d="M50,590A50,50,0,0,1,0,540C0,242.24,242.24,0,540,0a50,50,0,0,1,0,100c-242.62,0-440,197.38-440,440a50,50,0,0,1-50,50"/><path class="cls-1" d="M585.92,807.77V758.12c94.25-12.23,136.69-63.31,136.69-136.69V607.76c0-75.54-34.53-105.75-113-121.58L508.94,466c-25.9-5-38.85-12.22-38.85-38.12V417.83c0-33.81,19.43-48.2,69.78-48.2,52.52,0,68.35,15.11,68.35,47.49v10.07c0,10.79,5.76,16.55,17.27,16.55h74.1c10.07,0,16.54-6.48,16.54-18V415c0-66.19-36.69-110.08-130.21-120.87V252.36c0-27.33-17.27-46-44.6-46h-3.6c-27.34,0-44.61,18.71-44.61,46v42.45c-92.8,12.23-133.81,63.31-133.81,136v13c0,76.25,33.81,107.19,112.23,122.3l100,19.42c26.62,5,39.57,12.95,39.57,38.85V635.1c0,33.09-21.58,48.2-72.66,48.2-54.68,0-72-15.83-72-48.2V622.87c0-10.07-5.75-15.83-15.82-15.83H375.85c-10.8,0-17.27,6.48-17.27,17.27v13c0,66.91,38.13,111.51,134.53,121.58v48.93c0,27.33,17.27,46,44.61,46h3.6c27.33,0,44.6-18.71,44.6-46"/><circle class="cls-2" cx="115" cy="783" r="25"/><circle class="cls-3" cx="293" cy="963" r="19"/><circle class="cls-4" cx="538" cy="1029" r="12.5"/><circle class="cls-5" cx="783" cy="966" r="6.5"/><circle class="cls-1" cx="963" cy="787" r="50"/><circle class="cls-6" cx="1029" cy="542" r="44"/><circle class="cls-7" cx="965" cy="296" r="37.5"/><circle class="cls-8" cx="787" cy="116" r="31.5"/></g></svg>