<svg id="Layer_1" data-name="Layer 1" xmlns="http://www.w3.org/2000/svg" viewBox="0 0 1080 1080"><defs><style>.cls-1{fill:#fff;}</style></defs><path class="cls-1" d="M50,590A50,50,0,0,1,0,540C0,242.24,242.24,0,540,0a50,50,0,0,1,0,100c-242.62,0-440,197.38-440,440A50,50,0,0,1,50,590ZM585.92,807.77V758.12c94.25-12.23,136.69-63.31,136.69-136.69V607.76c0-75.53-34.53-105.75-113-121.58L508.94,466c-25.9-5-38.85-12.23-38.85-38.13V417.83c0-33.81,19.43-48.2,69.79-48.2,52.51,0,68.34,15.11,68.34,47.49v10.07c0,10.79,5.76,16.54,17.27,16.54h74.1c10.07,0,16.55-6.47,16.55-18V415c0-66.19-36.69-110.08-130.22-120.87V252.37c0-27.34-17.26-46.05-44.6-46.05h-3.6c-27.34,0-44.6,18.71-44.6,46.05v42.44C400.31,307,359.3,358.12,359.3,430.78v13c0,76.26,33.81,107.2,112.23,122.31l100,19.42c26.62,5,39.57,12.95,39.57,38.85V635.1c0,33.1-21.58,48.2-72.66,48.2-54.68,0-72-15.82-72-48.2V622.87c0-10.07-5.75-15.83-15.82-15.83H375.85c-10.79,0-17.27,6.48-17.27,17.27v13c0,66.91,38.13,111.51,134.54,121.58v48.93c0,27.33,17.26,46,44.6,46h3.6C568.66,853.81,585.92,835.1,585.92,807.77Z"/><path class="cls-1" d="M540.57,1080a50,50,0,0,0-.28-100h-.42l-4.18,0h-.54a50,50,0,0,0-.52,100l5.37,0Zm-.28-48.37v0Zm265-21.21q2.48-1.39,4.92-2.82a50,50,0,0,0-50.14-86.52q-2,1.14-4,2.27a50,50,0,1,0,49.18,87.07ZM338.6,989.61a50,50,0,0,0-18.31-68.3l-4-2.33a50,50,0,0,0-50.89,86.09c1.63,1,3.25,1.91,4.89,2.85a50,50,0,0,0,68.3-18.31Zm666.3-174.75q1.46-2.45,2.88-4.91a50,50,0,1,0-86.61-50c-.76,1.32-1.54,2.64-2.32,4a50,50,0,1,0,86,50.94Zm-864,13.84a50,50,0,0,0,18.2-68.33l-2.3-4a50,50,0,0,0-87,49.29q1.38,2.45,2.78,4.86a50,50,0,0,0,68.33,18.2ZM1080,545.63c0-1.87,0-3.75,0-6v-.84a50,50,0,1,0-100,0V540l0,4.63a50,50,0,0,0,49.49,50.5h.51A50,50,0,0,0,1080,545.63ZM991.16,342a50,50,0,0,0,18.76-68.18c-.92-1.62-1.85-3.23-2.79-4.85a50,50,0,1,0-86.46,50.25l2.31,4A50,50,0,0,0,991.16,342ZM831.7,143.09a50,50,0,0,0-17.65-68.47q-2.44-1.45-4.9-2.86a50,50,0,0,0-49.89,86.67l4,2.31a50,50,0,0,0,68.47-17.65Z"/></svg>