<svg id="Layer_1" data-name="Layer 1" xmlns="http://www.w3.org/2000/svg" viewBox="0 0 1006 1006"><defs><style>.cls-1{fill:#fff;}</style></defs><path class="cls-1" d="M540,37c-136.61,0-153.74.58-207.39,3S242.51,51,210.52,63.41c-33.08,12.85-61.13,30.05-89.1,58s-45.16,56-58,89.1C51,242.51,42.47,279.08,40,332.61S37,403.39,37,540s.58,153.74,3,207.39S51,837.49,63.41,869.48c12.85,33.08,30.05,61.13,58,89.1s56,45.16,89.1,58c32,12.44,68.56,20.94,122.09,23.38s70.78,3,207.39,3,153.74-.58,207.39-3,90.1-10.94,122.09-23.38c33.08-12.85,61.13-30.05,89.1-58s45.16-56,58-89.1c12.44-32,20.94-68.56,23.38-122.09s3-70.78,3-207.39-.58-153.74-3-207.39-10.94-90.1-23.38-122.09c-12.85-33.08-30.05-61.13-58-89.1s-56-45.16-89.1-58C837.49,51,800.92,42.47,747.39,40S676.61,37,540,37Zm0,90.63c134.31,0,150.22.51,203.26,2.93,49,2.24,75.67,10.43,93.39,17.32,23.48,9.13,40.24,20,57.84,37.63s28.5,34.36,37.63,57.83c6.89,17.73,15.08,44.36,17.32,93.4,2.42,53,2.93,68.95,2.93,203.26s-.51,150.22-2.93,203.26c-2.24,49-10.43,75.67-17.32,93.4-9.13,23.47-20,40.23-37.63,57.83s-34.36,28.5-57.84,37.63c-17.72,6.89-44.35,15.08-93.39,17.32-53,2.42-68.94,2.93-203.26,2.93s-150.22-.51-203.26-2.93c-49-2.24-75.67-10.43-93.4-17.32-23.47-9.13-40.23-20-57.83-37.63s-28.5-34.36-37.63-57.83c-6.89-17.73-15.08-44.36-17.32-93.4-2.42-53-2.93-69-2.93-203.26s.51-150.22,2.93-203.26c2.24-49,10.43-75.67,17.32-93.4,9.13-23.47,20-40.23,37.63-57.83s34.36-28.5,57.83-37.63c17.73-6.89,44.36-15.08,93.4-17.32,53-2.42,68.95-2.93,203.26-2.93" transform="translate(-37 -37)"/><path class="cls-1" d="M540,707.67A167.67,167.67,0,1,1,707.67,540,167.67,167.67,0,0,1,540,707.67Zm0-426c-142.65,0-258.3,115.65-258.3,258.3S397.35,798.3,540,798.3,798.3,682.65,798.3,540,682.65,281.7,540,281.7Z" transform="translate(-37 -37)"/><path class="cls-1" d="M868.86,271.5a60.36,60.36,0,1,1-60.36-60.36,60.36,60.36,0,0,1,60.36,60.36Z" transform="translate(-37 -37)"/></svg>