<svg id="Layer_1" data-name="Layer 1" xmlns="http://www.w3.org/2000/svg" viewBox="0 0 99.38 100"><defs><style>.cls-1{fill:#484d6d;}</style></defs><path class="cls-1" d="M92.69,74.78V78A11,11,0,0,1,82.35,89H53.48a10.63,10.63,0,0,1-4.28,8.55,10.06,10.06,0,0,1-8.91,2.14L8.2,91.89A11.46,11.46,0,0,1,0,81.19V18.81A10.73,10.73,0,0,1,8.2,8.11h0L40.29.27A10.06,10.06,0,0,1,49.2,2.41a9.54,9.54,0,0,1,4.28,8.2H82A10.5,10.5,0,0,1,92.69,21.3v3.57a3.57,3.57,0,0,1-7.13,0V21.66a3.87,3.87,0,0,0-3.21-3.92H53.48V81.91H82a3.37,3.37,0,0,0,3.56-3.57V74.78a3.57,3.57,0,1,1,7.13,0ZM98,47,76.65,32.71a3.51,3.51,0,0,0-5,1.07,15.54,15.54,0,0,0-.36,1.78v3.57H64.17A7.15,7.15,0,0,0,57,46.26v7.13a7.15,7.15,0,0,0,7.13,7.13H71.3v3.56a3.58,3.58,0,0,0,3.57,3.57,2.72,2.72,0,0,0,1.78-.72L98,52.67C99.82,51.6,99.82,48,98,47Z" transform="translate(0 0)"/></svg>