<svg id="Layer_1" data-name="Layer 1" xmlns="http://www.w3.org/2000/svg" viewBox="0 0 1080 230"><defs><style>.cls-1{fill:#484d6d;}.cls-2{fill:#767a92;}</style></defs><path class="cls-1" d="M10.65,125.65A10.65,10.65,0,0,1,0,115,115.13,115.13,0,0,1,115,0a10.65,10.65,0,1,1,0,21.3A93.8,93.8,0,0,0,21.3,115,10.65,10.65,0,0,1,10.65,125.65ZM124.78,172V161.45c20.07-2.6,29.11-13.48,29.11-29.11v-2.91c0-16.09-7.35-22.52-24.06-25.89l-21.44-4.29c-5.52-1.07-8.28-2.61-8.28-8.12V89c0-7.2,4.14-10.26,14.86-10.26,11.19,0,14.56,3.22,14.56,10.11V91c0,2.29,1.22,3.52,3.68,3.52H149c2.14,0,3.52-1.38,3.52-3.83v-2.3c0-14.1-7.81-23.44-27.73-25.74V53.74c0-5.82-3.68-9.8-9.5-9.8h-.77c-5.82,0-9.5,4-9.5,9.8v9c-19.76,2.61-28.49,13.49-28.49,29V94.5c0,16.24,7.2,22.83,23.9,26.05l21.29,4.13c5.67,1.07,8.43,2.76,8.43,8.28v2.29c0,7.05-4.59,10.27-15.47,10.27-11.65,0-15.32-3.37-15.32-10.27v-2.6A3.06,3.06,0,0,0,96,129.28H80A3.39,3.39,0,0,0,76.36,133v2.75c0,14.25,8.12,23.75,28.65,25.9V172c0,5.83,3.68,9.81,9.5,9.81h.77C121.1,181.83,124.78,177.85,124.78,172Z"/><path class="cls-2" d="M115.12,230a10.65,10.65,0,0,0-.06-21.3H114a10.65,10.65,0,0,0-.11,21.29h1.26Zm-.06-10.3h0v0Zm56.45-4.52,1-.6a10.64,10.64,0,1,0-10.67-18.42l-.85.48a10.65,10.65,0,1,0,10.48,18.54Zm-99.4-4.43a10.65,10.65,0,0,0-3.9-14.54l-.85-.5A10.65,10.65,0,1,0,56.52,214l1,.61a10.64,10.64,0,0,0,14.55-3.9ZM214,173.54l.61-1a10.65,10.65,0,0,0-18.45-10.65c-.16.28-.32.57-.49.85A10.65,10.65,0,0,0,214,173.54ZM30,176.48a10.65,10.65,0,0,0,3.88-14.55l-.5-.86a10.64,10.64,0,1,0-18.52,10.5c.19.35.39.69.59,1A10.64,10.64,0,0,0,30,176.48ZM230,116.2c0-.4,0-.8,0-1.27v-.18a10.65,10.65,0,0,0-21.3,0V116a10.64,10.64,0,0,0,10.54,10.75h.11A10.65,10.65,0,0,0,230,116.2ZM211.08,72.83a10.66,10.66,0,0,0,4-14.52l-.6-1A10.65,10.65,0,0,0,196.07,68l.49.85a10.65,10.65,0,0,0,14.52,4Zm-34-42.36a10.64,10.64,0,0,0-3.76-14.58l-1-.61a10.65,10.65,0,0,0-10.63,18.46l.85.49a10.64,10.64,0,0,0,14.58-3.76Z"/><path class="cls-1" d="M357.06,152.8c-4.54,8-12.57,12.27-23.48,12.27-18.48,0-30.6-10.91-30.6-30.3V102.66h-6.21A3.67,3.67,0,0,1,292.83,99V89.93a3.7,3.7,0,0,1,3.94-3.78h23.48c4.7,0,7.12,2.12,7.12,7.27v41.5c0,8,3.94,12.42,11.51,12.42,7.73,0,11.67-4.39,11.67-12.42V102.66h-6.21A3.67,3.67,0,0,1,340.4,99V89.93a3.69,3.69,0,0,1,3.94-3.78h23.47c4.7,0,7.12,2.12,7.12,7.11v45.15l7,7c3.79,3.79,3.94,8.34.3,12l-4.39,4.39c-3.63,3.64-8.33,3.49-12-.15Zm90.74,10.45H411.14a3.71,3.71,0,0,1-3.94-3.79v-9.09a3.67,3.67,0,0,1,3.94-3.63h6.06V111l-7-7c-3.79-3.79-3.94-8.33-.3-12l4.39-4.39c3.63-3.63,8.33-3.48,12,.15l8.78,8.79c4.39-8,12.57-12.27,23.48-12.27,18.48,0,30.6,10.9,30.6,30.45v32h6.21a3.67,3.67,0,0,1,3.94,3.63v9.09a3.71,3.71,0,0,1-3.94,3.79H471.88c-4.7,0-7.12-2.12-7.12-7.12V114.62c0-8-3.94-12.57-11.51-12.57-7.73,0-11.67,4.39-11.67,12.57v32.12h6.22a3.66,3.66,0,0,1,3.93,3.63v9.09A3.7,3.7,0,0,1,447.8,163.25Zm77.25,0a3.58,3.58,0,0,1-3.79-3.79v-9.09a3.54,3.54,0,0,1,3.79-3.63h6.36v-73h-6.36a3.54,3.54,0,0,1-3.79-3.63V61a3.58,3.58,0,0,1,3.79-3.79h23.63c4.7,0,7.27,2.12,7.27,7.12v82.41h6.51a3.66,3.66,0,0,1,3.94,3.63v9.09a3.7,3.7,0,0,1-3.94,3.79ZM628.36,84.33c23.48,0,37.87,11.51,37.87,31.35v18c0,20-14.39,31.36-37.87,31.36s-37.87-11.36-37.87-31.36v-18C590.49,95.84,605,84.33,628.36,84.33Zm0,64.22c8.94,0,13.18-4.09,13.18-12.27v-23c0-8.33-4.24-12.42-13.18-12.42s-13.18,4.09-13.18,12.42v23Q615.18,148.55,628.36,148.55ZM718,136.28c0,8.18,4.09,12.27,12.42,12.27,8.18,0,11.81-3.18,11.81-9.84v-3.18a3.62,3.62,0,0,1,3.79-3.94h15.3a3.82,3.82,0,0,1,4.09,4.09v3c0,17.27-13,26.36-35.14,26.36-22.88,0-37-11.36-37-31.36v-18c0-19.84,14.08-31.35,37-31.35,22.11,0,35.14,9.09,35.14,26.36v2.57a3.82,3.82,0,0,1-4.09,4.09h-15.3a3.62,3.62,0,0,1-3.79-3.94v-2.57c0-6.82-3.63-10-11.81-10-8.33,0-12.42,4.09-12.42,12.42Zm74.68,27a3.7,3.7,0,0,1-3.94-3.79v-9.09a3.66,3.66,0,0,1,3.94-3.63h6v-73h-6a3.66,3.66,0,0,1-3.94-3.63V61a3.7,3.7,0,0,1,3.94-3.79h23.17c4.85,0,7.27,2.12,7.27,7.12v82.41h6.21a3.66,3.66,0,0,1,3.94,3.63v9.09a3.7,3.7,0,0,1-3.94,3.79Zm59.83-3.49L831,134.92a13,13,0,0,1-3.18-8.48c0-3,.91-5.76,3.63-8.94l13.79-15.45h-5.91c-2.42,0-3.94-1.51-3.94-3.63V89.93a3.62,3.62,0,0,1,3.94-3.78h31.21a3.69,3.69,0,0,1,3.93,3.78V99a3.67,3.67,0,0,1-3.93,3.64h-4.25l-16.51,17.72,22.12,24.69a11.59,11.59,0,0,1-2.27,17.42C863.76,166.43,857.4,165.37,852.55,159.76Zm81.19,5.31c-23.32,0-37.71-10.15-37.71-29.54V115.08c0-20,14.24-30.75,37-30.75,23.32,0,36,10.45,36,29.69v10.6c0,4.85-2.27,7-6.82,7h-42v6.51c0,8.18,4.55,11.36,13.64,11.36,8.33,0,11.36-2.72,11.36-7.27v-.91c0-1.66.6-2.42,2.57-2.42H965.1c1.82,0,2.73,1.06,2.73,2.88v1.36C967.83,157,956,165.07,933.74,165.07Zm-13.48-47.72h25.6v-6.06c0-7.88-4.09-11.51-12.87-11.51-8.49,0-12.73,3.63-12.73,11.51Zm132.25,35.75c-4.55,7.72-12.88,12-23.94,12C1010.24,165.07,996,154,996,134V115.38c0-19.54,13.94-30.6,31.36-30.6,7.57,0,13.78,2.27,18.33,6.52V73.72h-6.06a3.62,3.62,0,0,1-3.79-3.63V61a3.67,3.67,0,0,1,3.79-3.79H1063c4.69,0,7.27,2.12,7.27,7.12v74.08l7,7c3.63,3.64,3.78,8.34.15,12l-4.39,4.39c-3.64,3.64-8.34,3.49-12-.15Zm-31.66-39.84V136c0,7.88,3.78,12.12,12.42,12.12,8.48,0,12.42-4.24,12.42-12.12V113.26c0-8-3.94-12.12-12.42-12.12C1024.63,101.14,1020.85,105.23,1020.85,113.26Z"/></svg>