<svg id="Layer_1" data-name="Layer 1" xmlns="http://www.w3.org/2000/svg" viewBox="0 0 1080 700"><defs><style>.cls-1{fill:#484d6d;}.cls-2{fill:#767a92;}</style></defs><path class="cls-1" d="M335.83,245.83A20.83,20.83,0,0,1,315,225C315,100.93,415.93,0,540,0a20.84,20.84,0,0,1,0,41.67c-101.09,0-183.33,82.24-183.33,183.33A20.83,20.83,0,0,1,335.83,245.83Zm223.3,90.74V315.88c39.27-5.09,57-26.37,57-56.95v-5.7c0-31.47-14.39-44.06-47.06-50.65l-42-8.4c-10.79-2.1-16.19-5.09-16.19-15.89V174.1C510.87,160,519,154,540,154c21.88,0,28.48,6.3,28.48,19.79V178c0,4.5,2.39,6.9,7.19,6.9H606.5c4.19,0,6.89-2.7,6.89-7.49v-4.5c0-27.58-15.29-45.86-54.26-50.36V105.15c0-11.39-7.19-19.18-18.58-19.18h-1.5c-11.39,0-18.59,7.79-18.59,19.18v17.69c-38.66,5.09-55.75,26.38-55.75,56.65v5.4c0,31.77,14.09,44.66,46.76,51l41.67,8.09c11.09,2.1,16.49,5.4,16.49,16.19v4.5c0,13.79-9,20.08-30.28,20.08-22.78,0-30-6.59-30-20.08v-5.1c0-4.2-2.4-6.6-6.59-6.6H471.6c-4.49,0-7.19,2.7-7.19,7.2v5.39c0,27.88,15.89,46.47,56.05,50.66v20.39c0,11.39,7.2,19.18,18.59,19.18h1.5C551.94,355.75,559.13,348,559.13,336.57Z"/><path class="cls-2" d="M540.24,450a20.84,20.84,0,0,0-.12-41.67H538a20.84,20.84,0,0,0-.22,41.67h2.48Zm-.12-20.15h0v0ZM650.56,421l2-1.17a20.84,20.84,0,0,0-20.89-36.06l-1.65,1A20.84,20.84,0,1,0,650.56,421Zm-194.48-8.67a20.83,20.83,0,0,0-7.63-28.46l-1.66-1a20.83,20.83,0,1,0-21.2,35.87l2,1.19a20.83,20.83,0,0,0,28.46-7.63Zm277.63-72.81,1.2-2a20.83,20.83,0,0,0-36.09-20.83l-1,1.65a20.83,20.83,0,1,0,35.85,21.23Zm-360,5.76a20.84,20.84,0,0,0,7.58-28.47l-1-1.68a20.83,20.83,0,0,0-36.25,20.54c.38.68.77,1.36,1.16,2a20.83,20.83,0,0,0,28.47,7.58ZM765,227.35c0-.78,0-1.57,0-2.48v-.35a20.84,20.84,0,1,0-41.67,0v2.41A20.84,20.84,0,0,0,744,248h.21A20.84,20.84,0,0,0,765,227.35Zm-37-84.86a20.83,20.83,0,0,0,7.82-28.41l-1.16-2a20.83,20.83,0,1,0-36,20.93l1,1.68a20.83,20.83,0,0,0,28.4,7.82ZM661.54,59.62a20.83,20.83,0,0,0-7.35-28.53c-.68-.4-1.36-.8-2.05-1.19A20.83,20.83,0,0,0,631.36,66L633,67a20.83,20.83,0,0,0,28.53-7.36Z"/><path class="cls-1" d="M88.12,683.17C81.88,694.18,70.87,700,55.91,700c-25.36,0-42-15-42-41.57V614.37H5.4c-3.11,0-5.4-2.07-5.4-5V596.92a5.08,5.08,0,0,1,5.4-5.2H37.62c6.44,0,9.77,2.91,9.77,10v56.94c0,11,5.4,17,15.79,17,10.6,0,16-6,16-17V614.37H70.66c-3.12,0-5.4-2.07-5.4-5V596.92a5.07,5.07,0,0,1,5.4-5.2h32.22c6.44,0,9.76,2.91,9.76,9.77v61.93L122.2,673c5.2,5.2,5.41,11.43.42,16.42l-6,6c-5,5-11.43,4.78-16.42-.21Zm124.49,14.34h-50.3a5.08,5.08,0,0,1-5.4-5.2V679.84c0-2.91,2.29-5,5.4-5h8.32V625.8l-9.56-9.55c-5.2-5.2-5.41-11.44-.42-16.42l6-6c5-5,11.43-4.78,16.42.21l12.05,12c6-11,17.25-16.83,32.22-16.83,25.35,0,42,15,42,41.77v43.85h8.52c3.12,0,5.4,2.08,5.4,5v12.47a5.07,5.07,0,0,1-5.4,5.2H245.65c-6.44,0-9.76-2.91-9.76-9.77v-57c0-11-5.41-17.25-15.8-17.25-10.6,0-16,6-16,17.25v44.06h8.52c3.12,0,5.4,2.08,5.4,5v12.47A5.07,5.07,0,0,1,212.61,697.51Zm106,0a4.91,4.91,0,0,1-5.19-5.2V679.84a4.86,4.86,0,0,1,5.19-5h8.73V574.68H318.6a4.86,4.86,0,0,1-5.19-5V557.22A4.9,4.9,0,0,1,318.6,552H351c6.45,0,10,2.9,10,9.76V674.85h8.94c3.11,0,5.4,2.08,5.4,5v12.47a5.08,5.08,0,0,1-5.4,5.2ZM460.35,589.23c32.21,0,51.95,15.79,51.95,43V657c0,27.43-19.74,43-51.95,43-32,0-52-15.59-52-43V632.25C408.39,605,428.34,589.23,460.35,589.23Zm0,88.12c12.26,0,18.08-5.62,18.08-16.84V628.92c0-11.43-5.82-17-18.08-17-12.06,0-18.08,5.61-18.08,17v31.59Q442.27,677.34,460.35,677.35Zm123-16.84c0,11.22,5.61,16.84,17,16.84,11.23,0,16.22-4.37,16.22-13.51v-4.37c0-3.32,2.07-5.4,5.19-5.4h21a5.24,5.24,0,0,1,5.61,5.61v4.16c0,23.69-17.87,36.16-48.21,36.16-31.39,0-50.71-15.59-50.71-43V632.25c0-27.23,19.32-43,50.71-43,30.34,0,48.21,12.47,48.21,36.16v3.53a5.23,5.23,0,0,1-5.61,5.61h-21c-3.12,0-5.19-2.07-5.19-5.4V625.6c0-9.35-5-13.72-16.22-13.72-11.43,0-17,5.61-17,17Zm102.46,37a5.08,5.08,0,0,1-5.4-5.2V679.84c0-2.91,2.29-5,5.4-5h8.32V574.68h-8.32c-3.11,0-5.4-2.08-5.4-5V557.22a5.07,5.07,0,0,1,5.4-5.19h31.8c6.65,0,10,2.9,10,9.76V674.85h8.52c3.12,0,5.4,2.08,5.4,5v12.47a5.07,5.07,0,0,1-5.4,5.2Zm82.1-4.78-29.52-34.09A17.78,17.78,0,0,1,734.06,647c0-4.15,1.25-7.89,5-12.26L758,613.54h-8.11c-3.32,0-5.4-2.08-5.4-5V596.92c0-3.12,2.08-5.2,5.4-5.2h42.82a5.07,5.07,0,0,1,5.4,5.2v12.47c0,2.91-2.28,5-5.4,5h-5.82l-22.66,24.32,30.35,33.88a15.89,15.89,0,0,1-3.12,23.9C783.32,701.87,774.59,700.42,767.94,692.73ZM879.34,700c-32,0-51.75-13.92-51.75-40.53V631.42c0-27.44,19.53-42.19,50.71-42.19,32,0,49.46,14.34,49.46,40.73v14.55c0,6.65-3.12,9.56-9.35,9.56H860.84V663c0,11.22,6.23,15.58,18.7,15.58,11.43,0,15.59-3.74,15.59-10v-1.25c0-2.29.83-3.32,3.53-3.32h23.7c2.49,0,3.74,1.45,3.74,3.94v1.87C926.1,689,909.89,700,879.34,700Zm-18.5-65.47H896v-8.31c0-10.81-5.61-15.79-17.66-15.79-11.64,0-17.46,5-17.46,15.79Zm181.44,49.05c-6.24,10.6-17.67,16.42-32.84,16.42-25.15,0-44.68-15.17-44.68-42.61V631.83c0-26.81,19.12-42,43-42,10.39,0,18.91,3.12,25.15,8.94V574.68h-8.32a5,5,0,0,1-5.19-5V557.22a5,5,0,0,1,5.19-5.19h32c6.44,0,10,2.9,10,9.76V663.42l9.56,9.56c5,5,5.2,11.43.21,16.42l-6,6c-5,5-11.43,4.78-16.41-.21Zm-43.44-54.66V660.1c0,10.8,5.2,16.62,17,16.62,11.64,0,17.05-5.82,17.05-16.62V628.92c0-11-5.41-16.62-17.05-16.62C1004,612.3,998.84,617.91,998.84,628.92Z"/></svg>