<svg id="Layer_1" data-name="Layer 1" xmlns="http://www.w3.org/2000/svg" viewBox="0 0 1080 700"><defs><style>.cls-1{fill:#fff;}</style></defs><path class="cls-1" d="M335.16,244.9a20.83,20.83,0,0,1-20.83-20.84c0-124.06,100.93-225,225-225a20.84,20.84,0,0,1,0,41.67C438.24,40.73,356,123,356,224.06A20.84,20.84,0,0,1,335.16,244.9Zm223.3,90.73V315c39.27-5.1,56.95-26.38,56.95-56.95v-5.7c0-31.47-14.38-44.06-47.06-50.66l-42-8.39c-10.79-2.1-16.18-5.1-16.18-15.89v-4.2c0-14.09,8.09-20.08,29.07-20.08,21.89,0,28.48,6.29,28.48,19.78v4.2c0,4.5,2.4,6.89,7.2,6.89h30.87c4.2,0,6.9-2.69,6.9-7.49V172c0-27.57-15.29-45.86-54.26-50.36V104.22c0-11.39-7.19-19.19-18.59-19.19h-1.49c-11.4,0-18.59,7.8-18.59,19.19V121.9C481.12,127,464,148.28,464,178.56V184c0,31.78,14.09,44.67,46.77,51l41.66,8.1c11.09,2.1,16.49,5.39,16.49,16.19v4.49c0,13.79-9,20.08-30.27,20.08-22.79,0-30-6.59-30-20.08V258.6c0-4.2-2.4-6.6-6.6-6.6H470.93c-4.5,0-7.2,2.7-7.2,7.2v5.39c0,27.88,15.89,46.46,56.06,50.66v20.38c0,11.39,7.19,19.19,18.59,19.19h1.49C551.27,354.82,558.46,347,558.46,335.63Zm-18.9,113.43a20.83,20.83,0,0,0-.11-41.66H537.3a20.83,20.83,0,0,0-.21,41.66h2.47Zm-.11-20.15h0v0Zm110.43-8.84c.69-.38,1.37-.77,2-1.17a20.83,20.83,0,1,0-20.89-36l-1.65.94a20.83,20.83,0,1,0,20.49,36.28ZM455.41,411.4A20.83,20.83,0,0,0,447.78,383l-1.66-1a20.84,20.84,0,0,0-21.21,35.87l2,1.19a20.81,20.81,0,0,0,28.46-7.63ZM733,338.59c.41-.68.81-1.36,1.2-2a20.83,20.83,0,0,0-36.08-20.83c-.32.56-.64,1.11-1,1.65A20.83,20.83,0,1,0,733,338.59Zm-360,5.77a20.84,20.84,0,0,0,7.58-28.48l-1-1.67a20.83,20.83,0,1,0-36.25,20.54l1.16,2A20.82,20.82,0,0,0,373,344.36Zm391.29-118c0-.78,0-1.56,0-2.48v-.35a20.83,20.83,0,0,0-41.66,0V226a20.82,20.82,0,0,0,20.62,21h.22A20.84,20.84,0,0,0,764.31,226.41Zm-37-84.86a20.83,20.83,0,0,0,7.82-28.4c-.39-.68-.77-1.35-1.17-2a20.83,20.83,0,0,0-36,20.94l1,1.67a20.81,20.81,0,0,0,28.41,7.82ZM660.87,58.69a20.83,20.83,0,0,0-7.36-28.53c-.68-.41-1.36-.8-2-1.19a20.83,20.83,0,0,0-20.79,36.11l1.66,1a20.84,20.84,0,0,0,28.53-7.35ZM87.44,682.23c-6.23,11-17.24,16.83-32.21,16.83-25.35,0-42-15-42-41.56V613.44H4.73c-3.12,0-5.4-2.08-5.4-5V596a5.07,5.07,0,0,1,5.4-5.19H36.94c6.44,0,9.77,2.91,9.77,10v57c0,11,5.4,17,15.8,17,10.59,0,16-6,16-17V613.44H70c-3.12,0-5.41-2.08-5.41-5V596A5.07,5.07,0,0,1,70,590.79H102.2c6.44,0,9.77,2.91,9.77,9.76v61.94l9.56,9.56c5.2,5.19,5.4,11.43.41,16.42l-6,6c-5,5-11.43,4.78-16.42-.21Zm124.5,14.34h-50.3a5.07,5.07,0,0,1-5.4-5.19V678.91c0-2.91,2.28-5,5.4-5H170v-49l-9.56-9.56c-5.19-5.2-5.4-11.43-.41-16.42l6-6c5-5,11.44-4.78,16.42.21l12.06,12.06c6-11,17.25-16.84,32.21-16.84,25.36,0,42,15,42,41.78v43.85h8.52c3.12,0,5.41,2.08,5.41,5v12.47a5.08,5.08,0,0,1-5.41,5.19H245c-6.44,0-9.77-2.91-9.77-9.77V629.86c0-11-5.4-17.25-15.79-17.25-10.6,0-16,6-16,17.25v44.06h8.53c3.11,0,5.4,2.08,5.4,5v12.47A5.08,5.08,0,0,1,211.94,696.57Zm106,0a4.91,4.91,0,0,1-5.2-5.19V678.91a4.86,4.86,0,0,1,5.2-5h8.73V573.74h-8.73a4.85,4.85,0,0,1-5.2-5V556.29a4.91,4.91,0,0,1,5.2-5.2h32.42c6.44,0,10,2.91,10,9.77V673.92h8.93c3.12,0,5.41,2.08,5.41,5v12.47a5.08,5.08,0,0,1-5.41,5.19ZM459.67,588.29c32.22,0,52,15.8,52,43V656c0,27.44-19.74,43-52,43-32,0-52-15.58-52-43V631.31C407.71,604.09,427.67,588.29,459.67,588.29Zm0,88.12c12.26,0,18.08-5.61,18.08-16.83V628c0-11.43-5.82-17-18.08-17-12.05,0-18.08,5.61-18.08,17v31.59Q441.59,676.41,459.67,676.41Zm123-16.83c0,11.22,5.61,16.83,17,16.83,11.22,0,16.21-4.36,16.21-13.51v-4.36c0-3.33,2.08-5.41,5.2-5.41h21a5.24,5.24,0,0,1,5.61,5.62v4.15c0,23.7-17.87,36.16-48.22,36.16-31.38,0-50.71-15.58-50.71-43V631.31c0-27.22,19.33-43,50.71-43,30.35,0,48.22,12.47,48.22,36.16V628a5.24,5.24,0,0,1-5.61,5.61h-21c-3.12,0-5.2-2.08-5.2-5.4v-3.54c0-9.35-5-13.71-16.21-13.71-11.43,0-17,5.61-17,17Zm102.46,37a5.07,5.07,0,0,1-5.4-5.19V678.91c0-2.91,2.28-5,5.4-5h8.31V573.74h-8.31c-3.12,0-5.4-2.07-5.4-5V556.29a5.07,5.07,0,0,1,5.4-5.2H717c6.65,0,10,2.91,10,9.77V673.92h8.52c3.12,0,5.41,2.08,5.41,5v12.47a5.08,5.08,0,0,1-5.41,5.19Zm82.09-4.78-29.51-34.08a17.75,17.75,0,0,1-4.36-11.64c0-4.16,1.24-7.9,5-12.26l18.92-21.2h-8.11c-3.32,0-5.4-2.08-5.4-5V596c0-3.12,2.08-5.19,5.4-5.19H792A5.07,5.07,0,0,1,797.4,596v12.47c0,2.91-2.29,5-5.41,5h-5.82l-22.65,24.32,30.34,33.87a15.89,15.89,0,0,1-3.11,23.9C782.64,700.94,773.91,699.48,767.26,691.79Zm111.4,7.27c-32,0-51.75-13.92-51.75-40.52V630.48c0-27.43,19.54-42.19,50.71-42.19,32,0,49.47,14.34,49.47,40.74v14.55c0,6.65-3.12,9.55-9.36,9.55H860.16v8.94c0,11.22,6.24,15.59,18.71,15.59,11.43,0,15.59-3.74,15.59-10v-1.24c0-2.29.83-3.33,3.53-3.33h23.69c2.5,0,3.74,1.46,3.74,3.95v1.87C925.42,688.05,909.21,699.06,878.66,699.06Zm-18.5-65.46h35.13v-8.31c0-10.81-5.61-15.8-17.67-15.8-11.64,0-17.46,5-17.46,15.8Zm181.44,49c-6.23,10.6-17.66,16.41-32.83,16.41-25.15,0-44.69-15.17-44.69-42.6V630.9c0-26.81,19.12-42,43-42,10.39,0,18.92,3.11,25.15,8.93V573.74h-8.31a5,5,0,0,1-5.2-5V556.29a5,5,0,0,1,5.2-5.2h32c6.45,0,10,2.91,10,9.77V662.49l9.56,9.56c5,5,5.19,11.43.21,16.42l-6,6c-5,5-11.43,4.78-16.42-.21ZM998.17,628v31.17c0,10.81,5.19,16.63,17,16.63,11.64,0,17-5.82,17-16.63V628c0-11-5.4-16.63-17-16.63C1003.36,611.36,998.17,617,998.17,628Z"/></svg>