<svg id="Layer_1" data-name="Layer 1" xmlns="http://www.w3.org/2000/svg" viewBox="0 0 100 63"><defs><style>.cls-1{fill:#57a773;}</style></defs><path class="cls-1" d="M0,3V41.62a3.06,3.06,0,0,0,3.06,3H78.67a3.06,3.06,0,0,0,3.06-3V3a3.05,3.05,0,0,0-3.06-3H3.06A3.05,3.05,0,0,0,0,3ZM33.08,28.51l.49-.71a1.51,1.51,0,0,1,2.08-.43l.06.05A7.52,7.52,0,0,0,39.44,29a2.54,2.54,0,0,0,2.1-.78A2.3,2.3,0,0,0,42,26.7c0-1.73-1.34-2.5-3.51-3.61A13.26,13.26,0,0,1,35.11,21a5.44,5.44,0,0,1-1.29-1.69,5.73,5.73,0,0,1-.48-2.38,5.8,5.8,0,0,1,4.24-5.79L37.8,11V8.68a1.5,1.5,0,0,1,1.49-1.51h.65a1.52,1.52,0,0,1,1.51,1.51V11l.24,0a6.77,6.77,0,0,1,3.44,1.79l.08.08a1.49,1.49,0,0,1,.07,2l-.65.71a1.51,1.51,0,0,1-2,.17,4.65,4.65,0,0,0-2.79-1.14,2,2,0,0,0-2.19,1.69c0,.12,0,.24,0,.35,0,1.39,1.21,2.05,3.17,3A13.82,13.82,0,0,1,44.33,22a5.88,5.88,0,0,1,1.34,1.93,6.56,6.56,0,0,1,.51,2.66,6,6,0,0,1-4.53,6l-.21.06V35a1.5,1.5,0,0,1-1.5,1.5h-.65A1.49,1.49,0,0,1,37.76,35V32.76l-.24-.07a12.81,12.81,0,0,1-4.08-2,1.51,1.51,0,0,1-.36-2.1ZM19.93,58.43h74a1.5,1.5,0,0,0,1.5-1.5h0v-37a1.5,1.5,0,0,1,1.5-1.5h1.58a1.5,1.5,0,0,1,1.49,1.5V58.19A4.81,4.81,0,0,1,95.19,63H19.93a1.49,1.49,0,0,1-1.51-1.49h0V59.94a1.5,1.5,0,0,1,1.51-1.51ZM90.82,10.78V49.05A4.81,4.81,0,0,1,86,53.86H10.79a1.5,1.5,0,0,1-1.51-1.49h0V50.8a1.5,1.5,0,0,1,1.51-1.51h74a1.51,1.51,0,0,0,1.5-1.46v-37a1.49,1.49,0,0,1,1.47-1.5h1.57A1.5,1.5,0,0,1,90.82,10.78Z" transform="translate(0 0)"/></svg>