<svg id="Layer_1" data-name="Layer 1" xmlns="http://www.w3.org/2000/svg" viewBox="0 0 100 124.83"><defs><style>.cls-1{fill:#ee6352;}</style></defs><path class="cls-1" d="M9.43,115.76a9.17,9.17,0,0,0,9.29,9.15H81.28a9.17,9.17,0,0,0,9.29-9.15l3.6-75.45H6ZM66.57,55.43c0-2.64,1.53-4.72,4.17-4.72s4.16,2.08,4.16,4.72v52.15c0,2.63-1.53,4.71-4.16,4.71s-4.17-2.08-4.17-4.71Zm-20.8,0c0-2.64,1.53-4.72,4.16-4.72s4.16,2.08,4.16,4.72v52.15c0,2.63-1.52,4.71-4.16,4.71s-4.16-2.08-4.16-4.71Zm-20.8,0c0-2.64,1.52-4.72,4.16-4.72s4.16,2.08,4.16,4.72v52.15c0,2.63-1.53,4.71-4.16,4.71S25,110.21,25,107.58Z" transform="translate(0 -0.09)"/><path class="cls-1" d="M95.84,16.73H70.74V4.39c0-2.5-1.25-4.3-3.89-4.3H33.29a4,4,0,0,0-4.16,4.3V16.73H4.3c-2.64,0-4.3,1.94-4.3,4.58v5.27C0,29.21,1.66,32,4.3,32H96c2.63,0,4-2.92,4-5.41V21.31C99.86,18.67,98.47,16.73,95.84,16.73Zm-33.43,0h-25V8.41h25Z" transform="translate(0 -0.09)"/></svg>