<svg xmlns="http://www.w3.org/2000/svg" xmlns:xlink="http://www.w3.org/1999/xlink" xml:space="preserve" version="1.1" style="shape-rendering:geometricPrecision;text-rendering:geometricPrecision;image-rendering:optimizeQuality;" viewBox="0 0 567 708.75" x="0px" y="0px" fill-rule="evenodd" clip-rule="evenodd"><defs><style type="text/css">
   
    .fil0 {fill:black;fill-rule:nonzero}
   
  </style></defs><g><path class="fil0" d="M284 0c156,0 283,127 283,284 0,156 -127,283 -283,283 -157,0 -284,-127 -284,-283 0,-157 127,-284 284,-284zm0 139c59,0 107,48 107,107 0,40 -22,75 -54,93 58,19 103,68 116,128 50,-45 81,-111 81,-183 0,-138 -112,-250 -250,-250 -138,0 -250,112 -250,250 0,72 31,138 80,183 13,-60 58,-109 116,-128 -32,-18 -54,-53 -54,-93 0,-59 49,-107 108,-107zm139 352l0 -1c-7,-71 -68,-125 -139,-125 -72,0 -132,54 -139,125l0 1c39,27 87,43 139,43 51,0 99,-16 139,-43zm-139 -318c-41,0 -74,33 -74,73 0,41 33,74 74,74 40,0 73,-33 73,-74 0,-40 -33,-73 -73,-73z"/></g><text x="0" y="582" fill="#000000" font-size="5px" font-weight="bold" font-family="'Helvetica Neue', Helvetica, Arial-Unicode, Arial, Sans-serif">Created by Saifurrijal</text><text x="0" y="587" fill="#000000" font-size="5px" font-weight="bold" font-family="'Helvetica Neue', Helvetica, Arial-Unicode, Arial, Sans-serif">from the Noun Project</text></svg>